<?xml version="1.0" encoding="utf-8"?>
<svg xmlns="http://www.w3.org/2000/svg" viewBox="0 0 32 32" width="512" height="512">
  <path d="M14.375 4L10.375 12L4 12L4 28L22.84375 28C24.253906 28 25.484375 27.003906 25.78125 25.625L27.9375 15.625C28.332031 13.777344 26.886719 12 25 12L17.21875 12C17.292969 11.375 17.308594 10.746094 17.78125 9.3125C18.085938 8.386719 18 7.535156 18 7C18 6.253906 17.699219 5.566406 17.1875 5C16.675781 4.433594 15.90625 4 15 4 Z M 15.5 6.25C15.5625 6.296875 15.664063 6.28125 15.71875 6.34375C15.90625 6.550781 16 6.835938 16 7C16 7.648438 16.019531 8.253906 15.875 8.6875C15.128906 10.949219 15 12.9375 15 12.9375L14.9375 14L25 14C25.660156 14 26.105469 14.574219 25.96875 15.21875L23.84375 25.21875C23.742188 25.6875 23.320313 26 22.84375 26L12 26L12 13.25 Z M 6 14L10 14L10 26L6 26 Z M 8 23C7.449219 23 7 23.449219 7 24C7 24.550781 7.449219 25 8 25C8.550781 25 9 24.550781 9 24C9 23.449219 8.550781 23 8 23Z" />
</svg>