<?xml version="1.0" standalone="no"?>
<!DOCTYPE svg PUBLIC "-//W3C//DTD SVG 20010904//EN"
 "http://www.w3.org/TR/2001/REC-SVG-20010904/DTD/svg10.dtd">
<svg version="1.0" xmlns="http://www.w3.org/2000/svg"
 width="500.000000pt" height="500.000000pt" viewBox="0 0 500.000000 500.000000"
 preserveAspectRatio="xMidYMid meet">
<metadata>
Created by potrace 1.16, written by Peter Selinger 2001-2019
</metadata>
<g transform="translate(0.000000,500.000000) scale(0.100000,-0.100000)"
fill="#000000" stroke="none">
<path d="M1863 3886 c-175 -85 -304 -178 -437 -313 -199 -203 -346 -485 -403
-770 -21 -109 -24 -411 -5 -523 12 -68 21 -103 53 -210 41 -138 142 -329 242
-459 173 -224 422 -404 693 -500 77 -27 175 -53 181 -47 2 2 -40 34 -94 72
-392 272 -610 562 -683 908 -29 136 -27 323 5 480 30 147 115 406 134 406 4 0
17 -19 27 -42 67 -150 248 -387 479 -628 56 -58 124 -132 151 -165 124 -146
234 -336 269 -460 21 -74 32 -87 40 -49 41 184 198 433 402 639 45 45 105 111
203 221 116 129 253 324 304 432 l30 62 26 -62 c46 -108 79 -209 106 -328 23
-100 27 -137 27 -280 -1 -146 -4 -177 -27 -265 -89 -339 -287 -596 -673 -870
-46 -32 -83 -62 -83 -66 0 -19 214 53 335 113 159 79 259 151 390 283 138 138
222 251 293 397 102 208 140 363 149 599 7 201 -6 318 -53 484 -77 266 -239
525 -433 693 -36 31 -68 60 -71 63 -11 13 -169 118 -220 146 -67 38 -180 86
-187 80 -2 -3 9 -20 24 -38 145 -170 200 -344 159 -509 -41 -167 -171 -371
-386 -605 -162 -175 -269 -325 -310 -433 l-17 -44 -17 43 c-47 117 -136 242
-303 427 -292 321 -427 570 -407 748 17 145 58 235 167 367 24 29 33 47 25 47
-8 0 -55 -20 -105 -44z"/>
</g>
</svg>
