<?xml version="1.0" encoding="utf-8"?>
<svg xmlns="http://www.w3.org/2000/svg" viewBox="0 0 48 48" width="144" height="144">
  <path d="M8.5 7C5.4802259 7 3 9.4802259 3 12.5L3 35.5C3 38.519774 5.4802259 41 8.5 41L39.5 41C42.519774 41 45 38.519774 45 35.5L45 12.5C45 9.4802259 42.519774 7 39.5 7L8.5 7 z M 8.5 10L39.5 10C40.898226 10 42 11.101774 42 12.5L42 35.5C42 36.898226 40.898226 38 39.5 38L8.5 38C7.1017741 38 6 36.898226 6 35.5L6 12.5C6 11.101774 7.1017741 10 8.5 10 z M 8.5 12C7.948 12 7.5 12.448 7.5 13L7.5 14C7.5 14.552 7.948 15 8.5 15L9.5 15C10.052 15 10.5 14.552 10.5 14L10.5 13C10.5 12.448 10.052 12 9.5 12L8.5 12 z M 14.5 12C13.948 12 13.5 12.448 13.5 13L13.5 14C13.5 14.552 13.948 15 14.5 15L15.5 15C16.052 15 16.5 14.552 16.5 14L16.5 13C16.5 12.448 16.052 12 15.5 12L14.5 12 z M 20.5 12C19.948 12 19.5 12.448 19.5 13L19.5 14C19.5 14.552 19.948 15 20.5 15L21.5 15C22.052 15 22.5 14.552 22.5 14L22.5 13C22.5 12.448 22.052 12 21.5 12L20.5 12 z M 26.5 12C25.948 12 25.5 12.448 25.5 13L25.5 14C25.5 14.552 25.948 15 26.5 15L27.5 15C28.052 15 28.5 14.552 28.5 14L28.5 13C28.5 12.448 28.052 12 27.5 12L26.5 12 z M 32.5 12C31.948 12 31.5 12.448 31.5 13L31.5 14C31.5 14.552 31.948 15 32.5 15L33.5 15C34.052 15 34.5 14.552 34.5 14L34.5 13C34.5 12.448 34.052 12 33.5 12L32.5 12 z M 38.5 12C37.948 12 37.5 12.448 37.5 13L37.5 14C37.5 14.552 37.948 15 38.5 15L39.5 15C40.052 15 40.5 14.552 40.5 14L40.5 13C40.5 12.448 40.052 12 39.5 12L38.5 12 z M 20.738281 18C20.437281 18.001875 20.137141 18.081781 19.869141 18.238281C19.331141 18.551281 19 19.127 19 19.75L19 28.25C19 28.873 19.331141 29.448719 19.869141 29.761719C20.141141 29.919719 20.445 30 20.75 30C21.048 30 21.344328 29.924484 21.611328 29.771484L29.111328 25.521484C29.660328 25.211484 30 24.63 30 24C30 23.37 29.660328 22.788516 29.111328 22.478516L21.611328 18.228516C21.340328 18.074516 21.039281 17.998125 20.738281 18 z M 8.5 33C7.948 33 7.5 33.448 7.5 34L7.5 35C7.5 35.552 7.948 36 8.5 36L9.5 36C10.052 36 10.5 35.552 10.5 35L10.5 34C10.5 33.448 10.052 33 9.5 33L8.5 33 z M 14.5 33C13.948 33 13.5 33.448 13.5 34L13.5 35C13.5 35.552 13.948 36 14.5 36L15.5 36C16.052 36 16.5 35.552 16.5 35L16.5 34C16.5 33.448 16.052 33 15.5 33L14.5 33 z M 20.5 33C19.948 33 19.5 33.448 19.5 34L19.5 35C19.5 35.552 19.948 36 20.5 36L21.5 36C22.052 36 22.5 35.552 22.5 35L22.5 34C22.5 33.448 22.052 33 21.5 33L20.5 33 z M 26.5 33C25.948 33 25.5 33.448 25.5 34L25.5 35C25.5 35.552 25.948 36 26.5 36L27.5 36C28.052 36 28.5 35.552 28.5 35L28.5 34C28.5 33.448 28.052 33 27.5 33L26.5 33 z M 32.5 33C31.948 33 31.5 33.448 31.5 34L31.5 35C31.5 35.552 31.948 36 32.5 36L33.5 36C34.052 36 34.5 35.552 34.5 35L34.5 34C34.5 33.448 34.052 33 33.5 33L32.5 33 z M 38.5 33C37.948 33 37.5 33.448 37.5 34L37.5 35C37.5 35.552 37.948 36 38.5 36L39.5 36C40.052 36 40.5 35.552 40.5 35L40.5 34C40.5 33.448 40.052 33 39.5 33L38.5 33 z" />
</svg>